<svg xmlns="http://www.w3.org/2000/svg" xmlns:xlink="http://www.w3.org/1999/xlink" width="150" zoomAndPan="magnify" viewBox="0 0 112.5 30.000001" height="40" preserveAspectRatio="xMidYMid meet" version="1.0"><defs><g/></defs><g fill="#178ceb" fill-opacity="1"><g transform="translate(8.612296, 21.870969)"><g><path d="M 8.546875 -15.4375 C 8.546875 -15.144531 8.476562 -14.882812 8.34375 -14.65625 C 8.21875 -14.4375 8.050781 -14.242188 7.84375 -14.078125 C 7.632812 -13.921875 7.398438 -13.789062 7.140625 -13.6875 C 6.878906 -13.582031 6.628906 -13.503906 6.390625 -13.453125 C 6.359375 -11.742188 6.289062 -10.09375 6.1875 -8.5 C 6.09375 -6.90625 5.941406 -5.257812 5.734375 -3.5625 L 5.859375 -3.5625 C 6.109375 -3.5625 6.347656 -3.535156 6.578125 -3.484375 C 6.816406 -3.429688 7.03125 -3.34375 7.21875 -3.21875 C 7.40625 -3.09375 7.554688 -2.929688 7.671875 -2.734375 C 7.785156 -2.546875 7.84375 -2.316406 7.84375 -2.046875 C 7.84375 -1.691406 7.734375 -1.382812 7.515625 -1.125 C 7.296875 -0.875 7.003906 -0.65625 6.640625 -0.46875 C 6.285156 -0.289062 5.890625 -0.140625 5.453125 -0.015625 C 5.015625 0.0976562 4.578125 0.1875 4.140625 0.25 C 3.703125 0.320312 3.285156 0.375 2.890625 0.40625 C 2.492188 0.4375 2.175781 0.453125 1.9375 0.453125 C 1.75 0.453125 1.519531 0.441406 1.25 0.421875 C 0.988281 0.410156 0.738281 0.367188 0.5 0.296875 C 0.269531 0.222656 0.0703125 0.113281 -0.09375 -0.03125 C -0.257812 -0.1875 -0.34375 -0.394531 -0.34375 -0.65625 C -0.34375 -0.976562 -0.273438 -1.265625 -0.140625 -1.515625 C -0.015625 -1.765625 0.148438 -1.988281 0.359375 -2.1875 C 0.578125 -2.382812 0.816406 -2.539062 1.078125 -2.65625 C 1.347656 -2.78125 1.617188 -2.875 1.890625 -2.9375 C 1.992188 -3.769531 2.085938 -4.597656 2.171875 -5.421875 C 2.265625 -6.242188 2.328125 -7.082031 2.359375 -7.9375 C 2.390625 -8.800781 2.421875 -9.648438 2.453125 -10.484375 C 2.484375 -11.328125 2.515625 -12.175781 2.546875 -13.03125 C 2.441406 -13.007812 2.34375 -12.992188 2.25 -12.984375 C 2.15625 -12.984375 2.070312 -12.984375 2 -12.984375 C 1.789062 -12.984375 1.5625 -13.003906 1.3125 -13.046875 C 1.070312 -13.097656 0.84375 -13.175781 0.625 -13.28125 C 0.414062 -13.394531 0.238281 -13.535156 0.09375 -13.703125 C -0.0390625 -13.867188 -0.109375 -14.082031 -0.109375 -14.34375 C -0.109375 -14.863281 0.101562 -15.289062 0.53125 -15.625 C 0.96875 -15.957031 1.484375 -16.210938 2.078125 -16.390625 C 2.679688 -16.578125 3.289062 -16.703125 3.90625 -16.765625 C 4.53125 -16.835938 5.03125 -16.875 5.40625 -16.875 C 5.625 -16.875 5.90625 -16.859375 6.25 -16.828125 C 6.601562 -16.796875 6.945312 -16.722656 7.28125 -16.609375 C 7.625 -16.503906 7.921875 -16.363281 8.171875 -16.1875 C 8.421875 -16.007812 8.546875 -15.757812 8.546875 -15.4375 Z M 8.546875 -15.4375 "/></g></g></g><g fill="#178ceb" fill-opacity="1"><g transform="translate(16.793885, 21.870969)"><g><path d="M 11.234375 -12.1875 C 11.234375 -11.363281 11.050781 -10.554688 10.6875 -9.765625 C 10.332031 -8.984375 9.859375 -8.273438 9.265625 -7.640625 C 8.679688 -7.015625 8.007812 -6.5 7.25 -6.09375 C 6.488281 -5.695312 5.707031 -5.476562 4.90625 -5.4375 C 4.894531 -5.164062 4.882812 -4.820312 4.875 -4.40625 C 4.863281 -3.988281 4.835938 -3.550781 4.796875 -3.09375 C 4.753906 -2.632812 4.691406 -2.175781 4.609375 -1.71875 C 4.523438 -1.269531 4.398438 -0.863281 4.234375 -0.5 C 4.078125 -0.132812 3.875 0.160156 3.625 0.390625 C 3.375 0.617188 3.066406 0.734375 2.703125 0.734375 C 2.273438 0.734375 1.9375 0.59375 1.6875 0.3125 C 1.4375 0.03125 1.25 -0.304688 1.125 -0.703125 C 1 -1.097656 0.910156 -1.507812 0.859375 -1.9375 C 0.816406 -2.375 0.785156 -2.742188 0.765625 -3.046875 C 0.742188 -3.484375 0.726562 -3.914062 0.71875 -4.34375 C 0.707031 -4.769531 0.703125 -5.203125 0.703125 -5.640625 C 0.703125 -5.835938 0.703125 -6.203125 0.703125 -6.734375 C 0.703125 -7.273438 0.707031 -7.890625 0.71875 -8.578125 C 0.726562 -9.265625 0.738281 -9.984375 0.75 -10.734375 C 0.757812 -11.492188 0.78125 -12.191406 0.8125 -12.828125 C 0.84375 -13.472656 0.878906 -14.023438 0.921875 -14.484375 C 0.960938 -14.941406 1.007812 -15.207031 1.0625 -15.28125 C 1.082031 -15.289062 1.128906 -15.320312 1.203125 -15.375 C 1.273438 -15.425781 1.359375 -15.476562 1.453125 -15.53125 C 1.546875 -15.59375 1.628906 -15.644531 1.703125 -15.6875 C 1.773438 -15.726562 1.828125 -15.757812 1.859375 -15.78125 C 2.554688 -16.175781 3.320312 -16.515625 4.15625 -16.796875 C 4.988281 -17.085938 5.816406 -17.234375 6.640625 -17.234375 C 7.335938 -17.234375 7.96875 -17.09375 8.53125 -16.8125 C 9.101562 -16.53125 9.585938 -16.15625 9.984375 -15.6875 C 10.390625 -15.226562 10.695312 -14.691406 10.90625 -14.078125 C 11.125 -13.460938 11.234375 -12.832031 11.234375 -12.1875 Z M 7.296875 -11.65625 C 7.296875 -11.96875 7.222656 -12.234375 7.078125 -12.453125 C 6.929688 -12.679688 6.691406 -12.796875 6.359375 -12.796875 C 6.078125 -12.796875 5.789062 -12.738281 5.5 -12.625 C 5.207031 -12.507812 4.941406 -12.394531 4.703125 -12.28125 C 4.753906 -11.75 4.796875 -11.234375 4.828125 -10.734375 C 4.867188 -10.234375 4.875 -9.71875 4.84375 -9.1875 C 5.082031 -9.300781 5.347656 -9.4375 5.640625 -9.59375 C 5.929688 -9.757812 6.195312 -9.941406 6.4375 -10.140625 C 6.675781 -10.335938 6.878906 -10.5625 7.046875 -10.8125 C 7.210938 -11.0625 7.296875 -11.34375 7.296875 -11.65625 Z M 7.296875 -11.65625 "/></g></g></g><g fill="#178ceb" fill-opacity="1"><g transform="translate(27.884484, 21.870969)"><g><path d="M 10.53125 -15.53125 C 10.53125 -15.144531 10.378906 -14.796875 10.078125 -14.484375 C 9.785156 -14.179688 9.429688 -13.910156 9.015625 -13.671875 C 8.597656 -13.441406 8.171875 -13.25 7.734375 -13.09375 C 7.296875 -12.945312 6.929688 -12.84375 6.640625 -12.78125 C 6.515625 -11.613281 6.414062 -10.445312 6.34375 -9.28125 C 6.28125 -8.125 6.25 -6.960938 6.25 -5.796875 C 6.25 -5.171875 6.265625 -4.554688 6.296875 -3.953125 C 6.328125 -3.347656 6.34375 -2.742188 6.34375 -2.140625 C 6.34375 -1.867188 6.316406 -1.566406 6.265625 -1.234375 C 6.210938 -0.910156 6.117188 -0.601562 5.984375 -0.3125 C 5.859375 -0.03125 5.679688 0.207031 5.453125 0.40625 C 5.222656 0.601562 4.941406 0.703125 4.609375 0.703125 C 4.222656 0.703125 3.910156 0.59375 3.671875 0.375 C 3.429688 0.15625 3.25 -0.109375 3.125 -0.421875 C 3 -0.742188 2.910156 -1.082031 2.859375 -1.4375 C 2.816406 -1.800781 2.796875 -2.125 2.796875 -2.40625 C 2.765625 -3.320312 2.738281 -4.238281 2.71875 -5.15625 C 2.707031 -6.070312 2.703125 -6.988281 2.703125 -7.90625 C 2.703125 -8.6875 2.707031 -9.445312 2.71875 -10.1875 C 2.726562 -10.925781 2.734375 -11.679688 2.734375 -12.453125 C 2.515625 -12.421875 2.296875 -12.398438 2.078125 -12.390625 C 1.859375 -12.378906 1.632812 -12.375 1.40625 -12.375 C 1.226562 -12.375 0.988281 -12.390625 0.6875 -12.421875 C 0.394531 -12.460938 0.113281 -12.53125 -0.15625 -12.625 C -0.425781 -12.726562 -0.660156 -12.863281 -0.859375 -13.03125 C -1.054688 -13.207031 -1.15625 -13.429688 -1.15625 -13.703125 C -1.15625 -14.160156 -0.976562 -14.5625 -0.625 -14.90625 C -0.269531 -15.25 0.179688 -15.546875 0.734375 -15.796875 C 1.285156 -16.046875 1.898438 -16.253906 2.578125 -16.421875 C 3.253906 -16.597656 3.921875 -16.734375 4.578125 -16.828125 C 5.234375 -16.929688 5.835938 -17.003906 6.390625 -17.046875 C 6.953125 -17.097656 7.382812 -17.125 7.6875 -17.125 C 7.96875 -17.125 8.269531 -17.109375 8.59375 -17.078125 C 8.925781 -17.054688 9.234375 -16.992188 9.515625 -16.890625 C 9.804688 -16.785156 10.046875 -16.625 10.234375 -16.40625 C 10.429688 -16.195312 10.53125 -15.90625 10.53125 -15.53125 Z M 10.53125 -15.53125 "/></g></g></g><g fill="#178ceb" fill-opacity="1"><g transform="translate(36.543333, 21.870969)"><g><path d="M 11.640625 -15.046875 C 11.640625 -14.503906 11.570312 -13.894531 11.4375 -13.21875 C 11.300781 -12.539062 11.128906 -11.851562 10.921875 -11.15625 C 10.722656 -10.46875 10.503906 -9.789062 10.265625 -9.125 C 10.023438 -8.46875 9.816406 -7.875 9.640625 -7.34375 C 9.515625 -7.007812 9.378906 -6.59375 9.234375 -6.09375 C 9.097656 -5.601562 8.929688 -5.085938 8.734375 -4.546875 C 8.546875 -4.003906 8.335938 -3.457031 8.109375 -2.90625 C 7.890625 -2.363281 7.640625 -1.875 7.359375 -1.4375 C 7.085938 -1.007812 6.789062 -0.660156 6.46875 -0.390625 C 6.144531 -0.117188 5.789062 0.015625 5.40625 0.015625 C 5.09375 0.015625 4.785156 -0.125 4.484375 -0.40625 C 4.191406 -0.695312 3.910156 -1.066406 3.640625 -1.515625 C 3.378906 -1.960938 3.128906 -2.460938 2.890625 -3.015625 C 2.660156 -3.566406 2.453125 -4.109375 2.265625 -4.640625 C 2.078125 -5.171875 1.914062 -5.660156 1.78125 -6.109375 C 1.65625 -6.566406 1.5625 -6.914062 1.5 -7.15625 C 1.195312 -8.34375 0.910156 -9.535156 0.640625 -10.734375 C 0.367188 -11.941406 0.234375 -13.15625 0.234375 -14.375 C 0.234375 -14.675781 0.242188 -14.988281 0.265625 -15.3125 C 0.296875 -15.632812 0.375 -15.929688 0.5 -16.203125 C 0.625 -16.484375 0.796875 -16.707031 1.015625 -16.875 C 1.234375 -17.050781 1.539062 -17.140625 1.9375 -17.140625 C 2.269531 -17.140625 2.578125 -16.953125 2.859375 -16.578125 C 3.140625 -16.210938 3.390625 -15.734375 3.609375 -15.140625 C 3.835938 -14.546875 4.046875 -13.882812 4.234375 -13.15625 C 4.429688 -12.4375 4.613281 -11.722656 4.78125 -11.015625 C 4.945312 -10.304688 5.101562 -9.644531 5.25 -9.03125 C 5.40625 -8.414062 5.554688 -7.929688 5.703125 -7.578125 C 5.796875 -7.878906 5.925781 -8.320312 6.09375 -8.90625 C 6.269531 -9.488281 6.476562 -10.128906 6.71875 -10.828125 C 6.957031 -11.523438 7.210938 -12.238281 7.484375 -12.96875 C 7.765625 -13.707031 8.0625 -14.375 8.375 -14.96875 C 8.6875 -15.570312 9.007812 -16.0625 9.34375 -16.4375 C 9.675781 -16.8125 10.019531 -17 10.375 -17 C 10.625 -17 10.832031 -16.9375 11 -16.8125 C 11.164062 -16.695312 11.296875 -16.539062 11.390625 -16.34375 C 11.484375 -16.144531 11.546875 -15.929688 11.578125 -15.703125 C 11.617188 -15.484375 11.640625 -15.265625 11.640625 -15.046875 Z M 11.640625 -15.046875 "/></g></g></g><g fill="#178ceb" fill-opacity="1"><g transform="translate(47.838471, 21.870969)"><g/></g></g><g fill="#178ceb" fill-opacity="1"><g transform="translate(53.31559, 21.870969)"><g><path d="M 10.734375 -11.578125 C 10.734375 -11.285156 10.695312 -10.976562 10.625 -10.65625 C 10.5625 -10.34375 10.453125 -10.046875 10.296875 -9.765625 C 10.148438 -9.492188 9.953125 -9.269531 9.703125 -9.09375 C 9.460938 -8.914062 9.171875 -8.828125 8.828125 -8.828125 C 8.296875 -8.828125 7.898438 -8.921875 7.640625 -9.109375 C 7.378906 -9.296875 7.195312 -9.53125 7.09375 -9.8125 C 6.988281 -10.101562 6.929688 -10.410156 6.921875 -10.734375 C 6.910156 -11.066406 6.894531 -11.375 6.875 -11.65625 C 6.863281 -11.945312 6.816406 -12.1875 6.734375 -12.375 C 6.648438 -12.5625 6.472656 -12.65625 6.203125 -12.65625 C 5.898438 -12.65625 5.632812 -12.546875 5.40625 -12.328125 C 5.175781 -12.109375 4.976562 -11.820312 4.8125 -11.46875 C 4.644531 -11.125 4.503906 -10.734375 4.390625 -10.296875 C 4.285156 -9.859375 4.195312 -9.421875 4.125 -8.984375 C 4.0625 -8.554688 4.015625 -8.148438 3.984375 -7.765625 C 3.953125 -7.378906 3.9375 -7.066406 3.9375 -6.828125 C 3.9375 -6.503906 3.945312 -6.125 3.96875 -5.6875 C 3.988281 -5.25 4.054688 -4.828125 4.171875 -4.421875 C 4.296875 -4.015625 4.476562 -3.671875 4.71875 -3.390625 C 4.96875 -3.117188 5.320312 -2.984375 5.78125 -2.984375 C 6.082031 -2.984375 6.375 -3.019531 6.65625 -3.09375 C 6.945312 -3.164062 7.234375 -3.25 7.515625 -3.34375 C 7.804688 -3.445312 8.097656 -3.535156 8.390625 -3.609375 C 8.691406 -3.691406 8.992188 -3.734375 9.296875 -3.734375 C 9.648438 -3.734375 9.9375 -3.59375 10.15625 -3.3125 C 10.382812 -3.03125 10.5 -2.710938 10.5 -2.359375 C 10.5 -1.878906 10.347656 -1.429688 10.046875 -1.015625 C 9.742188 -0.597656 9.367188 -0.234375 8.921875 0.078125 C 8.472656 0.398438 7.988281 0.648438 7.46875 0.828125 C 6.945312 1.015625 6.472656 1.109375 6.046875 1.109375 C 4.953125 1.109375 4.023438 0.863281 3.265625 0.375 C 2.515625 -0.113281 1.90625 -0.75 1.4375 -1.53125 C 0.96875 -2.3125 0.628906 -3.179688 0.421875 -4.140625 C 0.210938 -5.109375 0.109375 -6.070312 0.109375 -7.03125 C 0.109375 -7.664062 0.171875 -8.359375 0.296875 -9.109375 C 0.421875 -9.867188 0.601562 -10.628906 0.84375 -11.390625 C 1.082031 -12.160156 1.382812 -12.898438 1.75 -13.609375 C 2.125 -14.328125 2.5625 -14.957031 3.0625 -15.5 C 3.5625 -16.050781 4.125 -16.492188 4.75 -16.828125 C 5.382812 -17.160156 6.082031 -17.328125 6.84375 -17.328125 C 7.582031 -17.328125 8.203125 -17.140625 8.703125 -16.765625 C 9.203125 -16.390625 9.601562 -15.914062 9.90625 -15.34375 C 10.21875 -14.78125 10.429688 -14.160156 10.546875 -13.484375 C 10.671875 -12.816406 10.734375 -12.179688 10.734375 -11.578125 Z M 10.734375 -11.578125 "/></g></g></g><g fill="#178ceb" fill-opacity="1"><g transform="translate(64.269829, 21.870969)"><g><path d="M 11.78125 -11.953125 C 11.78125 -10.910156 11.535156 -9.972656 11.046875 -9.140625 C 10.566406 -8.304688 9.921875 -7.570312 9.109375 -6.9375 C 9.359375 -6.570312 9.609375 -6.144531 9.859375 -5.65625 C 10.117188 -5.175781 10.351562 -4.664062 10.5625 -4.125 C 10.769531 -3.582031 10.9375 -3.039062 11.0625 -2.5 C 11.1875 -1.96875 11.25 -1.472656 11.25 -1.015625 C 11.25 -0.535156 11.128906 -0.101562 10.890625 0.28125 C 10.660156 0.664062 10.265625 0.859375 9.703125 0.859375 C 9.234375 0.859375 8.828125 0.628906 8.484375 0.171875 C 8.148438 -0.273438 7.847656 -0.8125 7.578125 -1.4375 C 7.316406 -2.070312 7.078125 -2.710938 6.859375 -3.359375 C 6.640625 -4.015625 6.429688 -4.539062 6.234375 -4.9375 C 5.960938 -4.84375 5.695312 -4.738281 5.4375 -4.625 C 5.175781 -4.507812 4.910156 -4.398438 4.640625 -4.296875 C 4.617188 -3.960938 4.585938 -3.503906 4.546875 -2.921875 C 4.515625 -2.335938 4.429688 -1.753906 4.296875 -1.171875 C 4.171875 -0.597656 3.976562 -0.101562 3.71875 0.3125 C 3.46875 0.738281 3.113281 0.953125 2.65625 0.953125 C 2.15625 0.953125 1.769531 0.75 1.5 0.34375 C 1.226562 -0.0625 1.035156 -0.546875 0.921875 -1.109375 C 0.804688 -1.671875 0.738281 -2.242188 0.71875 -2.828125 C 0.707031 -3.410156 0.703125 -3.867188 0.703125 -4.203125 C 0.703125 -4.921875 0.71875 -5.625 0.75 -6.3125 C 0.78125 -7 0.796875 -7.695312 0.796875 -8.40625 C 0.796875 -9.0625 0.785156 -9.710938 0.765625 -10.359375 C 0.742188 -11.015625 0.734375 -11.675781 0.734375 -12.34375 C 0.734375 -12.5 0.734375 -12.691406 0.734375 -12.921875 C 0.734375 -13.160156 0.742188 -13.40625 0.765625 -13.65625 C 0.785156 -13.90625 0.8125 -14.140625 0.84375 -14.359375 C 0.875 -14.585938 0.925781 -14.773438 1 -14.921875 C 1.15625 -15.234375 1.5 -15.53125 2.03125 -15.8125 C 2.570312 -16.101562 3.164062 -16.359375 3.8125 -16.578125 C 4.457031 -16.804688 5.082031 -16.984375 5.6875 -17.109375 C 6.300781 -17.234375 6.765625 -17.296875 7.078125 -17.296875 C 7.847656 -17.296875 8.523438 -17.148438 9.109375 -16.859375 C 9.703125 -16.578125 10.195312 -16.1875 10.59375 -15.6875 C 10.988281 -15.195312 11.285156 -14.628906 11.484375 -13.984375 C 11.679688 -13.347656 11.78125 -12.671875 11.78125 -11.953125 Z M 7.578125 -11.640625 C 7.578125 -12.035156 7.484375 -12.332031 7.296875 -12.53125 C 7.117188 -12.738281 6.820312 -12.84375 6.40625 -12.84375 C 6.101562 -12.84375 5.796875 -12.789062 5.484375 -12.6875 C 5.179688 -12.582031 4.898438 -12.460938 4.640625 -12.328125 C 4.703125 -11.128906 4.722656 -9.9375 4.703125 -8.75 C 5.023438 -8.851562 5.351562 -8.988281 5.6875 -9.15625 C 6.019531 -9.320312 6.328125 -9.523438 6.609375 -9.765625 C 6.890625 -10.015625 7.117188 -10.289062 7.296875 -10.59375 C 7.484375 -10.894531 7.578125 -11.242188 7.578125 -11.640625 Z M 7.578125 -11.640625 "/></g></g></g><g fill="#178ceb" fill-opacity="1"><g transform="translate(76.15586, 21.870969)"><g><path d="M 12.15625 -3.359375 C 12.15625 -3.054688 12.128906 -2.691406 12.078125 -2.265625 C 12.023438 -1.847656 11.921875 -1.445312 11.765625 -1.0625 C 11.617188 -0.675781 11.414062 -0.347656 11.15625 -0.078125 C 10.90625 0.179688 10.566406 0.3125 10.140625 0.3125 C 9.578125 0.3125 9.15625 0.109375 8.875 -0.296875 C 8.59375 -0.703125 8.390625 -1.1875 8.265625 -1.75 C 8.148438 -2.320312 8.082031 -2.90625 8.0625 -3.5 C 8.039062 -4.09375 8.019531 -4.5625 8 -4.90625 C 6.90625 -4.726562 5.832031 -4.570312 4.78125 -4.4375 C 4.75 -4.082031 4.679688 -3.644531 4.578125 -3.125 C 4.484375 -2.613281 4.332031 -2.117188 4.125 -1.640625 C 3.914062 -1.171875 3.648438 -0.757812 3.328125 -0.40625 C 3.003906 -0.0625 2.609375 0.109375 2.140625 0.109375 C 1.773438 0.109375 1.488281 -0.0195312 1.28125 -0.28125 C 1.082031 -0.550781 0.925781 -0.863281 0.8125 -1.21875 C 0.707031 -1.582031 0.644531 -1.957031 0.625 -2.34375 C 0.601562 -2.738281 0.59375 -3.0625 0.59375 -3.3125 C 0.59375 -4.175781 0.660156 -5.03125 0.796875 -5.875 C 0.929688 -6.71875 1.085938 -7.554688 1.265625 -8.390625 C 1.359375 -8.828125 1.476562 -9.34375 1.625 -9.9375 C 1.78125 -10.53125 1.96875 -11.140625 2.1875 -11.765625 C 2.414062 -12.390625 2.675781 -13.007812 2.96875 -13.625 C 3.257812 -14.238281 3.59375 -14.785156 3.96875 -15.265625 C 4.351562 -15.753906 4.785156 -16.148438 5.265625 -16.453125 C 5.753906 -16.765625 6.296875 -16.921875 6.890625 -16.921875 C 7.460938 -16.921875 7.960938 -16.789062 8.390625 -16.53125 C 8.816406 -16.269531 9.1875 -15.925781 9.5 -15.5 C 9.820312 -15.082031 10.085938 -14.601562 10.296875 -14.0625 C 10.515625 -13.519531 10.691406 -12.972656 10.828125 -12.421875 C 10.972656 -11.867188 11.09375 -11.328125 11.1875 -10.796875 C 11.289062 -10.265625 11.378906 -9.796875 11.453125 -9.390625 C 11.648438 -8.398438 11.816406 -7.398438 11.953125 -6.390625 C 12.085938 -5.390625 12.15625 -4.378906 12.15625 -3.359375 Z M 7.78125 -8.890625 C 7.78125 -9.066406 7.765625 -9.363281 7.734375 -9.78125 C 7.710938 -10.195312 7.664062 -10.613281 7.59375 -11.03125 C 7.519531 -11.445312 7.398438 -11.816406 7.234375 -12.140625 C 7.078125 -12.472656 6.863281 -12.640625 6.59375 -12.640625 C 6.4375 -12.640625 6.289062 -12.535156 6.15625 -12.328125 C 6.019531 -12.128906 5.898438 -11.875 5.796875 -11.5625 C 5.691406 -11.25 5.597656 -10.898438 5.515625 -10.515625 C 5.429688 -10.140625 5.359375 -9.773438 5.296875 -9.421875 C 5.234375 -9.078125 5.1875 -8.765625 5.15625 -8.484375 C 5.125 -8.210938 5.101562 -8.015625 5.09375 -7.890625 C 6 -7.960938 6.894531 -8.078125 7.78125 -8.234375 Z M 7.78125 -8.890625 "/></g></g></g><g fill="#178ceb" fill-opacity="1"><g transform="translate(89.110042, 21.870969)"><g><path d="M 9.953125 -16.421875 C 9.953125 -15.835938 9.753906 -15.3125 9.359375 -14.84375 C 8.972656 -14.375 8.492188 -13.953125 7.921875 -13.578125 C 7.359375 -13.210938 6.765625 -12.890625 6.140625 -12.609375 C 5.515625 -12.335938 4.976562 -12.113281 4.53125 -11.9375 C 4.53125 -11.613281 4.519531 -11.285156 4.5 -10.953125 C 4.488281 -10.617188 4.46875 -10.285156 4.4375 -9.953125 C 4.914062 -10.203125 5.457031 -10.429688 6.0625 -10.640625 C 6.675781 -10.847656 7.253906 -10.953125 7.796875 -10.953125 C 8.234375 -10.953125 8.59375 -10.859375 8.875 -10.671875 C 9.15625 -10.492188 9.296875 -10.179688 9.296875 -9.734375 C 9.296875 -9.234375 9.117188 -8.785156 8.765625 -8.390625 C 8.410156 -7.992188 7.984375 -7.644531 7.484375 -7.34375 C 6.984375 -7.039062 6.457031 -6.78125 5.90625 -6.5625 C 5.363281 -6.351562 4.90625 -6.191406 4.53125 -6.078125 C 4.53125 -5.566406 4.519531 -5.066406 4.5 -4.578125 C 4.488281 -4.085938 4.46875 -3.597656 4.4375 -3.109375 C 4.414062 -2.867188 4.382812 -2.566406 4.34375 -2.203125 C 4.3125 -1.835938 4.238281 -1.484375 4.125 -1.140625 C 4.007812 -0.804688 3.84375 -0.515625 3.625 -0.265625 C 3.414062 -0.015625 3.144531 0.109375 2.8125 0.109375 C 2.5 0.109375 2.226562 -0.0390625 2 -0.34375 C 1.769531 -0.65625 1.578125 -1.054688 1.421875 -1.546875 C 1.265625 -2.035156 1.132812 -2.578125 1.03125 -3.171875 C 0.9375 -3.765625 0.863281 -4.347656 0.8125 -4.921875 C 0.757812 -5.503906 0.726562 -6.035156 0.71875 -6.515625 C 0.707031 -7.003906 0.703125 -7.378906 0.703125 -7.640625 C 0.703125 -7.835938 0.707031 -8.128906 0.71875 -8.515625 C 0.726562 -8.898438 0.734375 -9.328125 0.734375 -9.796875 C 0.742188 -10.265625 0.757812 -10.753906 0.78125 -11.265625 C 0.800781 -11.785156 0.828125 -12.273438 0.859375 -12.734375 C 0.890625 -13.203125 0.929688 -13.613281 0.984375 -13.96875 C 1.035156 -14.320312 1.101562 -14.582031 1.1875 -14.75 C 1.351562 -15.082031 1.75 -15.410156 2.375 -15.734375 C 3 -16.066406 3.695312 -16.359375 4.46875 -16.609375 C 5.25 -16.859375 6.003906 -17.0625 6.734375 -17.21875 C 7.472656 -17.382812 8.039062 -17.46875 8.4375 -17.46875 C 8.613281 -17.46875 8.789062 -17.453125 8.96875 -17.421875 C 9.144531 -17.398438 9.304688 -17.351562 9.453125 -17.28125 C 9.609375 -17.207031 9.726562 -17.097656 9.8125 -16.953125 C 9.90625 -16.816406 9.953125 -16.640625 9.953125 -16.421875 Z M 9.953125 -16.421875 "/></g></g></g><g fill="#178ceb" fill-opacity="1"><g transform="translate(98.496143, 21.870969)"><g><path d="M 10.53125 -15.53125 C 10.53125 -15.144531 10.378906 -14.796875 10.078125 -14.484375 C 9.785156 -14.179688 9.429688 -13.910156 9.015625 -13.671875 C 8.597656 -13.441406 8.171875 -13.25 7.734375 -13.09375 C 7.296875 -12.945312 6.929688 -12.84375 6.640625 -12.78125 C 6.515625 -11.613281 6.414062 -10.445312 6.34375 -9.28125 C 6.28125 -8.125 6.25 -6.960938 6.25 -5.796875 C 6.25 -5.171875 6.265625 -4.554688 6.296875 -3.953125 C 6.328125 -3.347656 6.34375 -2.742188 6.34375 -2.140625 C 6.34375 -1.867188 6.316406 -1.566406 6.265625 -1.234375 C 6.210938 -0.910156 6.117188 -0.601562 5.984375 -0.3125 C 5.859375 -0.03125 5.679688 0.207031 5.453125 0.40625 C 5.222656 0.601562 4.941406 0.703125 4.609375 0.703125 C 4.222656 0.703125 3.910156 0.59375 3.671875 0.375 C 3.429688 0.15625 3.25 -0.109375 3.125 -0.421875 C 3 -0.742188 2.910156 -1.082031 2.859375 -1.4375 C 2.816406 -1.800781 2.796875 -2.125 2.796875 -2.40625 C 2.765625 -3.320312 2.738281 -4.238281 2.71875 -5.15625 C 2.707031 -6.070312 2.703125 -6.988281 2.703125 -7.90625 C 2.703125 -8.6875 2.707031 -9.445312 2.71875 -10.1875 C 2.726562 -10.925781 2.734375 -11.679688 2.734375 -12.453125 C 2.515625 -12.421875 2.296875 -12.398438 2.078125 -12.390625 C 1.859375 -12.378906 1.632812 -12.375 1.40625 -12.375 C 1.226562 -12.375 0.988281 -12.390625 0.6875 -12.421875 C 0.394531 -12.460938 0.113281 -12.53125 -0.15625 -12.625 C -0.425781 -12.726562 -0.660156 -12.863281 -0.859375 -13.03125 C -1.054688 -13.207031 -1.15625 -13.429688 -1.15625 -13.703125 C -1.15625 -14.160156 -0.976562 -14.5625 -0.625 -14.90625 C -0.269531 -15.25 0.179688 -15.546875 0.734375 -15.796875 C 1.285156 -16.046875 1.898438 -16.253906 2.578125 -16.421875 C 3.253906 -16.597656 3.921875 -16.734375 4.578125 -16.828125 C 5.234375 -16.929688 5.835938 -17.003906 6.390625 -17.046875 C 6.953125 -17.097656 7.382812 -17.125 7.6875 -17.125 C 7.96875 -17.125 8.269531 -17.109375 8.59375 -17.078125 C 8.925781 -17.054688 9.234375 -16.992188 9.515625 -16.890625 C 9.804688 -16.785156 10.046875 -16.625 10.234375 -16.40625 C 10.429688 -16.195312 10.53125 -15.90625 10.53125 -15.53125 Z M 10.53125 -15.53125 "/></g></g></g></svg>
